<?xml version="1.0" encoding="UTF-8"?>
<svg xmlns="http://www.w3.org/2000/svg" width="50px" height="50px" viewBox="0 0 100 100" x="0px" y="0px">
	<g transform="translate(2.9025835,2.2471614)">
		<path
		   style="opacity:1;fill:#dc2d2d;fill-opacity:1;fill-rule:nonzero;stroke:none;stroke-width:0.94713348"
		   d="m 31.525807,19.336599 a 8.7264833,8.0055122 0 0 1 -8.613599,8.004843 8.7264833,8.0055122 0 0 1 -8.836447,-7.797746 8.7264833,8.0055122 0 0 1 8.384988,-8.206581 8.7264833,8.0055122 0 0 1 9.053378,7.585429" />
		<rect
		   style="opacity:1;fill:#dc2d2d;fill-opacity:1;fill-rule:nonzero;stroke:none;stroke-width:1.15104735"
		   id="rect4548"
		   width="34.999996"
		   height="41.200005"
		   x="30.297417"
		   y="44.952839"
		   ry="0" />
	  </g>
   <g>
      <path data-name="Compound Path" d="M25.3,35.3l7.9,53.1c.4,4.9,9.6,5.9,17.5,5.9s17.1-1,17.5-5.9l9.5-64.4a3.8,3.8,0,0,0,.2-1.1c0-3.2-3.8-5.1-8.7-6.3l2-5.1,12.5.7a3,3,0,1,0,.4-6c-15-1-15.3-.8-16.2-.4s-1.3.6-4.8,9.7A110.7,110.7,0,0,0,50.7,15a106,106,0,0,0-12.3.7,13.4,13.4,0,1,0-13,19.7ZM50.7,31l6.6-.2L51.8,45.3h-.9c-8.8,0-14.3.8-17.7,2L30.9,32.4a3,3,0,0,0,0-.5v-.6l-.4-2.4C36.7,30.7,45.7,31,50.7,31ZM68.2,47.2a43.4,43.4,0,0,0-10.1-1.7l5.8-15.3a45.7,45.7,0,0,0,7-1.4ZM49.6,53a73.8,73.8,0,0,1-11-.9,73.6,73.6,0,0,1,10.9-.9A3,3,0,0,0,49.6,53Zm6.3-1.6a65.8,65.8,0,0,1,7.1.7,67.2,67.2,0,0,1-7.7.8Zm-5.2,37c-6.1,0-10.2-.9-11.6-1.5L34.7,57.5C39.1,58.7,45.3,59,50.8,59c7.3,0,12.4-.6,15.8-1.5L62.3,86.9C60.8,87.5,56.7,88.4,50.7,88.4ZM69.6,23l-3.2.7.5-1.4Zm-19-2c3.9,0,7.3.2,10.2.5l-1.2,3.2c-2.6.2-5.6.4-9,.4a100.5,100.5,0,0,1-11-.6,12.9,12.9,0,0,0,.3-2.4c0-.2,0-.3,0-.5A102,102,0,0,1,50.7,21ZM26.5,14.6A7.4,7.4,0,0,1,33.9,22a6.9,6.9,0,0,1-.2,1.5,15.1,15.1,0,0,1-4.4-1.4,3,3,0,0,0-5.8.9h0c0,.1,0,.2,0,.3h0v.3l.8,5.3a7.4,7.4,0,0,1,2.1-14.5Z" />
   </g>
</svg>